<svg id="Layer_1" data-name="Layer 1" xmlns="http://www.w3.org/2000/svg" viewBox="0 0 492.48 736.15">
<title>strategy</title>
<path style="fill: #e7e7e7" d="M817.6,875.7a58,58,0,0,1-18.1-2.8,39.68,39.68,0,0,1-21-15.7c-1.9-2.9-7.8-12.6-6.3-25,2.8-23.9,30.3-36.8,37.7-35.5a10.21,10.21,0,0,0,6-.5c2.6-1.2,3.8-3.7,4.4-4.9,16.4-34.1,34.3-67.4,49.2-102.2a7.68,7.68,0,0,1,3-3.7,8.91,8.91,0,0,1,4.9-1.1q102.15.15,204.4,0c3.7,0,5.5,1,7.2,4.3,16.5,33.6,33.4,67,49.9,100.6,2.1,4.2,4.5,5.4,9.1,5.5a68.48,68.48,0,0,1,18.6,2.6c17.6,5.5,29.3,22.1,28.1,38.7-1.3,18.1-15,33.4-33.3,36.9a57.42,57.42,0,0,1-10.9,1C1094.8,873.9,872.9,875.9,817.6,875.7Z" transform="translate(-716 -139.57)"/>
<path style="fill: #e7e7e7" d="M1004.6,440.2c4.3,5,7.4,9.4,11.2,12.9q20.7,18.45,41.8,36.5c15.9,13.5,31.9,26.8,44.7,43.4,13.9,18.1,24.1,37.9,27.1,60.8,2.7,20.7-.9,40.5-9.8,59.2-.7,1.4-3.2,2.7-5,2.7-9.8.3-19.7.1-29.5.1H862.4c1.1-8.2,2.2-15.9,3-23.7a297,297,0,0,0-11.6-123.9c-9.9-31.7-17.1-64-18-97.4-.8-30.9,3.4-60.8,19.4-88,12.3-21,30-36.3,51.5-47.3,8.7-4.5,12-12.8,8.5-20.8-3.7-8.4-13.1-11.6-21.9-7.3-39.5,19.7-66.8,50.1-80.2,92.4-8,25.4-10.1,51.5-8.6,78,2.1,37.5,11.8,73.4,22.1,109.3,12.9,44.8,12,90.2,1.8,135.4-2.9,12.6-7,24.9-10.4,37.5-.9,3.2-2.5,4-5.6,4-25,0-50,0-75,.3-9.1.1-16.2-3.1-19.7-11.6s-1-15.6,5-22.4c30.2-34.6,37.3-74.2,23.9-117.5-9.2-29.7-18.4-59.4-23.7-90.1C713.8,410.8,712,359,728,308c24.5-77.8,77.7-127.5,154.3-153,44-14.6,89.2-18,135.2-13.7,13.9,1.3,21.5,9.4,20.4,21.4a29.9,29.9,0,0,1-2.4,8.6c-6.6,17.1-13.2,34.1-20.1,51.1-1.5,3.6-.8,5.5,2.2,7.8q90.3,70.35,180.5,140.9c12,9.4,13.5,18.7,5,31.5q-12.45,18.75-24.9,37.4c-6.7,10-15.9,12.6-26.9,7.4-14.8-6.9-29.4-14.1-44.3-20.9a8.65,8.65,0,0,0-6.7.2c-26.8,14.3-55.5,17.7-85.3,14.5C1012,441,1009.1,440.7,1004.6,440.2Z" transform="translate(-716 -139.57)"/></svg>